# xmcd CD database file
#
# Track frame offsets:
#	182
#	16060
#	33860
#	45455
#	58092
#	70717
#	81317
#	93890
#	107610
#	119565
#	135587
#	149302
#	162520
#
# Disc length: 2408 seconds
#
# Revision: 3
# Processed by: cddbd v1.5.2PL0 Copyright (c) Steve Scherf et al.
# Submitted via: CDex 1.70beta2
#
DISCID=a709660d
DTITLE=Claude Francois - For ever - CD01
DYEAR=1900
DGENRE=Blues
TTITLE0=Chanson populaire
TTITLE1=Sha la la
TTITLE2=Pour un peu de bonheur
TTITLE3=Notre dernière chansons ensemble
TTITLE4=La maison va revivre
TTITLE5=J'ai perdu ma chance
TTITLE6=Jamais non rien jamais
TTITLE7=Fille sauvage
TTITLE8=Le mal aimé
TTITLE9=Heureusement tu pense à moi
TTITLE10=Quand la pluie finira de tomber
TTITLE11=C'est toujours le même refrain
TTITLE12=Le téléphone pleure(avec la petite Frédérique)
EXTD=
EXTT0=
EXTT1=
EXTT2=
EXTT3=
EXTT4=
EXTT5=
EXTT6=
EXTT7=
EXTT8=
EXTT9=
EXTT10=
EXTT11=
EXTT12=
PLAYORDER=
